<?xml version="1.0" standalone="no"?>
<!DOCTYPE svg PUBLIC "-//W3C//DTD SVG 20010904//EN"
 "http://www.w3.org/TR/2001/REC-SVG-20010904/DTD/svg10.dtd">
<svg version="1.0" xmlns="http://www.w3.org/2000/svg"
 width="600.000000pt" height="600.000000pt" viewBox="0 0 600.000000 600.000000"
 preserveAspectRatio="xMidYMid meet">
<metadata>
Created by potrace 1.11, written by Peter Selinger 2001-2013
</metadata>
<g transform="translate(0.000000,600.000000) scale(0.100000,-0.100000)"
fill="#000000" stroke="none">
<path d="M3548 5910 c-172 -30 -336 -127 -446 -266 -41 -51 -102 -187 -117
-259 -17 -84 -13 -228 10 -302 51 -170 167 -312 326 -402 l56 -31 -5 -108 c-2
-59 -5 -108 -7 -110 -1 -1 -37 5 -81 13 -135 27 -367 18 -489 -19 -119 -35
-183 -64 -255 -115 -34 -25 -133 -121 -124 -121 2 0 -4 -17 -15 -38 -11 -21
-22 -55 -26 -75 -5 -26 -12 -37 -25 -37 -9 0 -39 -9 -66 -19 -27 -11 -108 -41
-180 -68 l-132 -50 -78 74 c-53 51 -84 73 -96 70 -10 -3 -35 7 -55 22 -58 41
-143 80 -195 90 -26 4 -49 7 -50 6 -2 -2 -19 -6 -38 -9 -19 -3 -71 -15 -115
-26 -127 -33 -144 -35 -260 -35 -76 1 -129 6 -170 19 -81 24 -235 75 -260 85
-11 5 -83 35 -160 66 -77 32 -185 79 -240 106 -55 27 -107 49 -117 49 -29 0
-48 -29 -48 -76 0 -46 -3 -49 -58 -44 -30 2 -39 -26 -16 -51 40 -45 298 -154
559 -238 72 -23 157 -50 190 -61 148 -48 217 -60 330 -56 100 3 123 7 248 50
76 25 150 46 165 46 40 0 114 -39 108 -57 -4 -9 20 -40 65 -85 38 -39 69 -71
67 -72 -6 -5 -116 -65 -198 -108 -47 -25 -96 -52 -110 -59 -18 -10 -68 -14
-185 -14 -208 -1 -329 -24 -475 -92 -74 -35 -122 -69 -202 -145 -80 -76 -102
-119 -121 -228 -20 -112 -13 -336 11 -374 3 -6 7 -90 8 -186 3 -285 8 -299
145 -413 131 -110 333 -282 399 -342 31 -27 92 -81 135 -120 78 -69 247 -220
315 -282 19 -17 44 -40 56 -50 11 -10 58 -52 104 -93 96 -87 98 -90 216 -195
48 -44 98 -89 109 -100 12 -11 73 -65 135 -120 63 -55 128 -112 145 -126 396
-349 701 -570 871 -635 105 -39 176 -26 473 90 78 31 157 62 175 70 17 8 128
57 246 109 118 53 276 124 350 160 74 35 158 74 185 87 94 42 610 299 775 386
292 153 553 307 601 354 25 25 58 113 73 197 9 56 13 158 11 363 -3 320 -10
441 -31 518 -26 95 -38 107 -299 315 -60 49 -117 94 -125 100 -41 34 -237 182
-344 261 -67 49 -159 119 -206 155 -47 37 -116 91 -155 121 -195 150 -618 483
-755 594 -85 68 -158 122 -162 120 -11 -7 -10 -16 -12 276 l-1 255 85 42 c230
114 367 322 375 568 3 127 -19 218 -80 329 -83 151 -186 237 -380 317 -73 30
-261 45 -357 29z"/>
</g>
</svg>
